%
M48
M72
T01C0.0236
T02C0.0320
T03C0.0400
%
T01
X5504Y1931
X14504Y2931
X17504Y2931
X20254Y2931
X20254Y4931
X17504Y7181
X14504Y9681
X9254Y16181
X9254Y18431
X6754Y18431
X6754Y13431
T02
X1900Y3578
X2607Y4285
X4650Y3578
X5357Y4285
X7400Y3578
X8107Y4285
X10150Y3578
X10857Y4285
X12900Y3578
X13607Y4285
X15650Y3578
X16357Y4285
X18400Y3578
X19107Y4285
X21150Y3578
X21857Y4285
X21150Y6328
X21857Y7035
X21150Y9078
X21857Y9785
X21150Y11828
X21857Y12535
X21150Y14578
X21857Y15285
X21150Y17328
X21857Y18035
X19107Y18035
X18400Y17328
X16357Y18035
X15650Y17328
X13607Y18035
X12900Y17328
X10857Y18035
X10150Y17328
X8107Y18035
X7400Y17328
X5357Y18035
X4650Y17328
X2607Y18035
X1900Y17328
X2607Y15285
X1900Y14578
X2607Y12535
X1900Y11828
X2607Y9785
X1900Y9078
X2607Y7035
X1900Y6328
X4650Y6328
X5357Y7035
X7400Y6328
X8107Y7035
X10150Y6328
X10857Y7035
X10150Y9078
X10857Y9785
X10150Y11828
X10857Y12535
X12900Y11828
X13607Y12535
X15650Y11828
X16357Y12535
X18400Y11828
X19107Y12535
X18400Y14578
X19107Y15285
X16357Y15285
X15650Y14578
X13607Y15285
X12900Y14578
X10857Y15285
X10150Y14578
X8107Y15285
X7400Y14578
X5357Y15285
X4650Y14578
X5357Y12535
X4650Y11828
X5357Y9785
X4650Y9078
X7400Y9078
X8107Y9785
X7400Y11828
X8107Y12535
X12900Y9078
X13607Y9785
X15650Y9078
X16357Y9785
X18400Y9078
X19107Y9785
X19107Y7035
X18400Y6328
X16357Y7035
X15650Y6328
X13607Y7035
X12900Y6328
T03
X13004Y1181
X14004Y1181
X15004Y1181
X17004Y1181
X18004Y1181
X19004Y1181
X20004Y1181
X21004Y1181
X22004Y1181
X12004Y1181
X11004Y1181
X10004Y1181
X9504Y20181
X10504Y20181
X11504Y20181
X12504Y20181
X13504Y20181
X15004Y20181
X16004Y20181
X17004Y20181
X18004Y20181
X19004Y20181
X20004Y20181
X21004Y20181
X22004Y20181
X8504Y20181
X7504Y20181
X6504Y20181
M30
