G75*
G70*
%OFA0B0*%
%FSLAX24Y24*%
%IPPOS*%
%LPD*%
%AMOC8*
5,1,8,0,0,1.08239X$1,22.5*
%
%ADD10C,0.0740*%
%ADD11R,0.0630X0.0709*%
%ADD12R,0.0472X0.0551*%
%ADD13C,0.0100*%
%ADD14R,0.0436X0.0436*%
%ADD15C,0.0160*%
D10*
X001900Y003578D03*
X002607Y004285D03*
X004650Y003578D03*
X005357Y004285D03*
X007400Y003578D03*
X008107Y004285D03*
X010150Y003578D03*
X010857Y004285D03*
X012900Y003578D03*
X013607Y004285D03*
X015650Y003578D03*
X016357Y004285D03*
X018400Y003578D03*
X019107Y004285D03*
X021150Y003578D03*
X021857Y004285D03*
X021150Y006328D03*
X021857Y007035D03*
X021150Y009078D03*
X021857Y009785D03*
X021150Y011828D03*
X021857Y012535D03*
X021150Y014578D03*
X021857Y015285D03*
X021150Y017328D03*
X021857Y018035D03*
X022004Y020181D03*
X021004Y020181D03*
X020004Y020181D03*
X019004Y020181D03*
X018004Y020181D03*
X017004Y020181D03*
X016004Y020181D03*
X015004Y020181D03*
X013504Y020181D03*
X012504Y020181D03*
X011504Y020181D03*
X010504Y020181D03*
X009504Y020181D03*
X008504Y020181D03*
X007504Y020181D03*
X006504Y020181D03*
X005357Y018035D03*
X004650Y017328D03*
X002607Y018035D03*
X001900Y017328D03*
X002607Y015285D03*
X001900Y014578D03*
X002607Y012535D03*
X001900Y011828D03*
X002607Y009785D03*
X001900Y009078D03*
X002607Y007035D03*
X001900Y006328D03*
X004650Y006328D03*
X005357Y007035D03*
X007400Y006328D03*
X008107Y007035D03*
X010150Y006328D03*
X010857Y007035D03*
X010150Y009078D03*
X010857Y009785D03*
X010150Y011828D03*
X010857Y012535D03*
X012900Y011828D03*
X013607Y012535D03*
X015650Y011828D03*
X016357Y012535D03*
X018400Y011828D03*
X019107Y012535D03*
X018400Y014578D03*
X019107Y015285D03*
X018400Y017328D03*
X019107Y018035D03*
X016357Y018035D03*
X015650Y017328D03*
X013607Y018035D03*
X012900Y017328D03*
X010857Y018035D03*
X010150Y017328D03*
X008107Y018035D03*
X007400Y017328D03*
X008107Y015285D03*
X007400Y014578D03*
X005357Y015285D03*
X004650Y014578D03*
X005357Y012535D03*
X004650Y011828D03*
X005357Y009785D03*
X004650Y009078D03*
X007400Y009078D03*
X008107Y009785D03*
X007400Y011828D03*
X008107Y012535D03*
X010150Y014578D03*
X010857Y015285D03*
X012900Y014578D03*
X013607Y015285D03*
X015650Y014578D03*
X016357Y015285D03*
X016357Y009785D03*
X015650Y009078D03*
X013607Y009785D03*
X012900Y009078D03*
X013607Y007035D03*
X012900Y006328D03*
X015650Y006328D03*
X016357Y007035D03*
X018400Y006328D03*
X019107Y007035D03*
X018400Y009078D03*
X019107Y009785D03*
X019004Y001181D03*
X020004Y001181D03*
X021004Y001181D03*
X022004Y001181D03*
X018004Y001181D03*
X017004Y001181D03*
X015004Y001181D03*
X014004Y001181D03*
X013004Y001181D03*
X012004Y001181D03*
X011004Y001181D03*
X010004Y001181D03*
D11*
X004305Y002431D03*
X003203Y002431D03*
X013453Y010681D03*
X014555Y010681D03*
X016453Y008181D03*
X017555Y008181D03*
X017453Y005431D03*
X018555Y005431D03*
X007305Y016181D03*
X006203Y016181D03*
X004555Y013431D03*
X003453Y013431D03*
X011703Y018931D03*
X012805Y018931D03*
D12*
X003163Y001181D03*
X004344Y001181D03*
D13*
X004650Y003578D02*
X001900Y003578D01*
X004650Y003578D02*
X007400Y003578D01*
X010150Y003578D01*
X012900Y003578D01*
X015650Y003578D01*
X017504Y003578D01*
X017453Y003629D01*
X017453Y005431D01*
X018555Y005431D02*
X019754Y005431D01*
X020254Y004931D01*
X021150Y003578D02*
X018400Y003578D01*
X017504Y003578D01*
X017504Y002931D02*
X017754Y002931D01*
X018004Y002681D01*
X018004Y001181D01*
X019004Y001181D02*
X019004Y002681D01*
X019254Y002931D01*
X020254Y002931D01*
X017004Y002681D02*
X017004Y001181D01*
X017004Y002681D02*
X016754Y002931D01*
X014504Y002931D01*
X015650Y006328D02*
X012900Y006328D01*
X010150Y006328D01*
X007400Y006328D01*
X004650Y006328D01*
X001900Y006328D01*
X001900Y009078D02*
X004650Y009078D01*
X007400Y009078D01*
X010150Y009078D01*
X012900Y009078D01*
X012754Y009224D01*
X012754Y010431D01*
X013004Y010681D01*
X013453Y010681D01*
X014555Y010681D02*
X014555Y009733D01*
X014504Y009681D01*
X015650Y009078D02*
X012900Y009078D01*
X015650Y009078D02*
X018400Y009078D01*
X021150Y009078D01*
X021150Y006328D02*
X018400Y006328D01*
X015650Y006328D01*
X015504Y006474D01*
X015504Y007681D01*
X016004Y008181D01*
X016453Y008181D01*
X017555Y008181D02*
X017555Y007233D01*
X017504Y007181D01*
X018400Y011828D02*
X015650Y011828D01*
X012900Y011828D01*
X010150Y011828D01*
X004650Y011828D01*
X003504Y011828D01*
X003453Y011879D01*
X003453Y013431D01*
X004555Y013431D02*
X006754Y013431D01*
X006254Y014578D02*
X006203Y014629D01*
X006203Y016181D01*
X007305Y016181D02*
X009254Y016181D01*
X010150Y017328D02*
X007400Y017328D01*
X004650Y017328D01*
X001900Y017328D01*
X001900Y014578D02*
X004650Y014578D01*
X006254Y014578D01*
X007400Y014578D01*
X010150Y014578D01*
X012900Y014578D01*
X015650Y014578D01*
X018400Y014578D01*
X021150Y014578D01*
X021150Y017328D02*
X018400Y017328D01*
X015650Y017328D01*
X012900Y017328D01*
X012805Y017423D01*
X012805Y018931D01*
X011703Y018931D02*
X011504Y019130D01*
X011504Y020181D01*
X010504Y020181D02*
X010504Y019681D01*
X009254Y018431D01*
X009254Y019431D02*
X009504Y019681D01*
X009504Y020181D01*
X009254Y019431D02*
X007254Y019431D01*
X006754Y018931D01*
X006754Y018431D01*
X010150Y017328D02*
X012900Y017328D01*
X018400Y011828D02*
X021150Y011828D01*
X003504Y011828D02*
X001900Y011828D01*
D14*
X006754Y013431D03*
X009254Y016181D03*
X009254Y018431D03*
X006754Y018431D03*
X014504Y009681D03*
X017504Y007181D03*
X020254Y004931D03*
X020254Y002931D03*
X017504Y002931D03*
X014504Y002931D03*
X005504Y001931D03*
D15*
X005504Y001431D01*
X005254Y001181D01*
X004504Y001181D01*
X004254Y000931D01*
X004254Y001091D01*
X004344Y001181D01*
X003163Y001181D02*
X003163Y002392D01*
X003203Y002431D01*
X004305Y002431D02*
X011754Y002431D01*
X012004Y002181D01*
X012004Y001181D01*
M02*
